<?xml version="1.0" encoding="UTF-8"?>
<svg id="Layer_2" data-name="Layer 2" xmlns="http://www.w3.org/2000/svg" viewBox="0 0 163.63 162.48">
  <defs>
    <style>
      .cls-1 {
        fill: #656669;
      }

      .cls-1, .cls-2 {
        stroke-width: 0px;
      }

      .cls-2 {
        fill: #e87422;
      }
    </style>
  </defs>
  <path class="cls-2" d="m98.96,2.63s-6.84-2.63-28.92-2.63S.1,11.57.1,11.57c0,0-2.1,72.56,12.62,95.17,14.72,22.61,23.14,32.6,57.84,55.74h0c34.7-23.14,43.12-32.6,57.84-55.74,1.58-2.1,2.63-4.73,3.68-7.89h-21.03s-4.21,17.88-40.49,41.54V19.46s14.2-2.63,28.39,1.05V2.63Z"/>
  <polygon class="cls-1" points="111.58 2.63 133.66 2.63 133.66 32.08 163.63 32.08 163.63 54.69 133.66 54.69 133.66 84.13 111.58 84.13 111.58 54.69 81.08 54.69 81.08 32.6 111.58 32.6 111.58 2.63"/>
</svg>