<?xml version="1.0" encoding="UTF-8"?>
<svg id="Layer_2" data-name="Layer 2" xmlns="http://www.w3.org/2000/svg" viewBox="0 0 696.71 316.02">
  <defs>
    <style>
      .cls-1 {
        fill: #656669;
      }

      .cls-1, .cls-2 {
        stroke-width: 0px;
      }

      .cls-2 {
        fill: #e87422;
      }
    </style>
  </defs>
  <path class="cls-2" d="m156.17,204.02c-9.99-22.08-38.91-49.95-74.14-49.95S0,189.82,0,238.2s44.69,77.82,83.61,77.82,54.16-22.08,54.16-22.08l-27.87-26.82s-6.31,11.04-26.29,11.04-33.65-12.62-42.59-27.34h117.78s7.36-24.19-2.63-46.8Zm-113.58,14.72s12.62-25.24,39.96-25.24,35.23,25.24,35.23,25.24H42.59Z"/>
  <path class="cls-1" d="m286.05,154.07v39.96h-56.26s-6.31,0-6.31,6.31,21.56,16.3,36.28,23.14c14.72,6.84,35.23,21.56,35.23,46.27s-24.71,46.27-45.22,46.27h-70.46v-38.91h61.52s6.31-1.58,6.31-9.46-17.35-17.88-36.81-26.82c-19.46-8.94-29.97-24.71-29.97-44.69s20.51-41.54,45.22-41.54c25.24-.53,60.47-.53,60.47-.53Z"/>
  <path class="cls-1" d="m316.02,316.02h42.59v-102.01s0-18.4,23.66-18.4,23.14,17.88,23.14,17.88v102.53h42.59v-103.06s4.21-16.83,25.77-16.83,23.14,18.93,23.14,18.93v100.96h42.07v-120.41s-11.57-41.54-52.58-41.54-55.74,23.14-55.74,23.14c0,0-2.1,1.58-4.21-.53-2.1-2.1-17.88-23.14-51.53-23.14s-58.37,27.34-58.37,42.59-.53,119.89-.53,119.89Z"/>
  <path class="cls-2" d="m632.04,2.63s-6.84-2.63-28.92-2.63-69.93,11.57-69.93,11.57c0,0-2.1,72.56,12.62,95.17,14.72,22.61,23.14,32.6,57.84,55.74h0c34.7-23.14,43.12-32.6,57.84-55.74,1.58-2.1,2.63-4.73,3.68-7.89h-21.03s-4.21,17.88-40.49,41.54V19.46s14.2-2.63,28.39,1.05V2.63Z"/>
  <polygon class="cls-1" points="644.66 2.63 666.74 2.63 666.74 32.08 696.71 32.08 696.71 54.69 666.74 54.69 666.74 84.13 644.66 84.13 644.66 54.69 614.16 54.69 614.16 32.6 644.66 32.6 644.66 2.63"/>
</svg>